0
SECTION
2
HEADER
9
$INSUNITS
70
4
9
$ACADVER
1
AC1014
9
$HANDSEED
5
FFFF
0
ENDSEC
0
SECTION
2
TABLES
0
TABLE
2
VPORT
5
8
100
AcDbSymbolTable
0
ENDTAB
0
TABLE
2
LTYPE
5
5
100
AcDbSymbolTable
0
LTYPE
5
14
100
AcDbSymbolTableRecord
100
AcDbLinetypeTableRecord
2
BYBLOCK
70
0
0
LTYPE
5
15
100
AcDbSymbolTableRecord
100
AcDbLinetypeTableRecord
2
BYLAYER
70
0
0
ENDTAB
0
TABLE
2
LAYER
5
2
100
AcDbSymbolTable
70
2
0
LAYER
5
50
100
AcDbSymbolTableRecord
100
AcDbLayerTableRecord
2
0
70
0
6
CONTINUOUS
0
ENDTAB
0
TABLE
2
STYLE
5
3
100
AcDbSymbolTable
70
1
0
STYLE
5
11
100
AcDbSymbolTableRecord
100
AcDbTextStyleTableRecord
2
STANDARD
70
0
0
ENDTAB
0
TABLE
2
VIEW
5
6
100
AcDbSymbolTable
70
0
0
ENDTAB
0
TABLE
2
UCS
5
7
100
AcDbSymbolTable
70
0
0
ENDTAB
0
TABLE
2
APPID
5
9
100
AcDbSymbolTable
70
2
0
APPID
5
12
100
AcDbSymbolTableRecord
100
AcDbRegAppTableRecord
2
ACAD
70
0
0
ENDTAB
0
TABLE
2
DIMSTYLE
5
A
100
AcDbSymbolTable
70
1
0
ENDTAB
0
TABLE
2
BLOCK_RECORD
5
1
100
AcDbSymbolTable
70
1
0
BLOCK_RECORD
5
1F
100
AcDbSymbolTableRecord
100
AcDbBlockTableRecord
2
*MODEL_SPACE
0
BLOCK_RECORD
5
1B
100
AcDbSymbolTableRecord
100
AcDbBlockTableRecord
2
*PAPER_SPACE
0
ENDTAB
0
ENDSEC
0
SECTION
2
BLOCKS
0
BLOCK
5
20
100
AcDbEntity
100
AcDbBlockBegin
2
*MODEL_SPACE
0
ENDBLK
5
21
100
AcDbEntity
100
AcDbBlockEnd
0
BLOCK
5
1C
100
AcDbEntity
100
AcDbBlockBegin
2
*PAPER_SPACE
0
ENDBLK
5
1D
100
AcDbEntity
100
AcDbBlockEnd
0
ENDSEC
0
SECTION
2
ENTITIES
0
CIRCLE
5
100
100
AcDbEntity
8
0
100
AcDbCircle
10
41.219054193331431
20
44.255145904216008
30
0
40
1.6000000000000014
210
0
220
0
230
1
0
CIRCLE
5
101
100
AcDbEntity
8
0
100
AcDbCircle
10
11.849508011966028
20
52.124692085581458
30
0
40
1.5999999999999992
210
0
220
0
230
1
0
LWPOLYLINE
5
102
100
AcDbEntity
8
0
100
AcDbPolyline
90
4
70
1
43
0.0
10
-36.599999999999305
20
-19.499999999999989
10
-36.599999999999312
20
5.5000000000000107
42
-0.99999999999999989
10
-33.399999999999309
20
5.5000000000000124
10
-33.399999999999302
20
-19.499999999999989
42
-0.99999999999999989
0
LWPOLYLINE
5
103
100
AcDbEntity
8
0
100
AcDbPolyline
90
4
70
1
43
0.0
10
36.599999999999319
20
5.4999999999999538
10
36.599999999999277
20
-19.500000000000043
42
-0.99999999999999989
10
33.399999999999274
20
-19.500000000000039
10
33.399999999999331
20
5.4999999999999627
42
-0.99999999999999989
0
LWPOLYLINE
5
104
100
AcDbEntity
8
0
100
AcDbPolyline
90
4
70
1
43
0.0
10
-29.049999999999262
20
12.550000000000011
10
-8.9499999999992639
20
12.550000000000011
10
-8.9499999999992639
20
9.4500000000000135
10
-29.049999999999262
20
9.4500000000000135
0
LWPOLYLINE
5
105
100
AcDbEntity
8
0
100
AcDbPolyline
90
4
70
1
43
0.0
10
8.9500000000007205
20
12.550000000000011
10
29.050000000000718
20
12.550000000000011
10
29.050000000000718
20
9.4500000000000135
10
8.9500000000007205
20
9.4500000000000135
0
CIRCLE
5
106
100
AcDbEntity
8
0
100
AcDbCircle
10
-24.320912487563668
20
19.485431512282311
30
0
40
2.1000000000000001
210
0
220
-0
230
1
0
CIRCLE
5
107
100
AcDbEntity
8
0
100
AcDbCircle
10
-20.878103536368254
20
47.524860296149654
30
0
40
2.1000000000000001
210
0
220
-0
230
1
0
CIRCLE
5
108
100
AcDbEntity
8
0
100
AcDbCircle
10
-8.5797936200322944
20
31.783741428618274
30
0
40
2.0999999999999996
210
0
220
-0
230
1
0
CIRCLE
5
109
100
AcDbEntity
8
0
100
AcDbCircle
10
-36.619222403899634
20
35.226550379813688
30
0
40
2.0999999999999996
210
0
220
-0
230
1
0
CIRCLE
5
110
100
AcDbEntity
8
0
100
AcDbCircle
10
0
20
0
30
0
40
4.3999999999999995
210
0
220
-0
230
1
0
CIRCLE
5
111
100
AcDbEntity
8
0
100
AcDbCircle
10
-22.59950801196598
20
33.505145904215986
30
0
40
11.200000000000006
210
0
220
-0
230
1
0
CIRCLE
5
112
100
AcDbEntity
8
0
100
AcDbCircle
10
22.599508011966009
20
33.505145904216015
30
0
40
18.200000000000006
210
0
220
-0
230
1
0
LWPOLYLINE
5
113
100
AcDbEntity
8
0
100
AcDbPolyline
90
16
70
1
43
0.0
10
-45.100000000000037
20
-23.399999999999991
10
-37.000000000000021
20
-23.399999999999991
10
-37.000000000000021
20
-26.499999999999986
10
-15.000000000000021
20
-26.499999999999986
10
-15.000000000000018
20
-23.399999999999991
10
14.999999999999982
20
-23.399999999999991
10
14.999999999999973
20
-26.499999999999986
10
36.999999999999979
20
-26.499999999999986
10
36.999999999999979
20
-23.399999999999991
10
45.09999999999998
20
-23.399999999999991
10
45.099999999999966
20
15.642920571486991
42
-0.082170283139673922
10
46.698806278210625
20
25.305849484471601
42
0.84932975087454299
10
2.3825793626270122
20
48.973837985054338
42
-0.49400397694915732
10
-2.3825793626269753
20
48.973837985054338
42
0.84932975087454043
10
-46.698806278210654
20
25.305849484471715
42
-0.08217028313967259
10
-45.100000000000044
20
15.642920571487263
0
ENDSEC
0
SECTION
2
OBJECTS
0
DICTIONARY
5
C
100
AcDbDictionary
3
ACAD_GROUP
350
D
3
ACAD_MLINESTYLE
350
17
0
DICTIONARY
5
D
100
AcDbDictionary
0
DICTIONARY
5
1A
330
C
100
AcDbDictionary
0
DICTIONARY
5
17
100
AcDbDictionary
0
ENDSEC
0
EOF
