0
SECTION
2
HEADER
9
$INSUNITS
70
4
9
$ACADVER
1
AC1014
9
$HANDSEED
5
FFFF
0
ENDSEC
0
SECTION
2
TABLES
0
TABLE
2
VPORT
5
8
100
AcDbSymbolTable
0
ENDTAB
0
TABLE
2
LTYPE
5
5
100
AcDbSymbolTable
0
LTYPE
5
14
100
AcDbSymbolTableRecord
100
AcDbLinetypeTableRecord
2
BYBLOCK
70
0
0
LTYPE
5
15
100
AcDbSymbolTableRecord
100
AcDbLinetypeTableRecord
2
BYLAYER
70
0
0
ENDTAB
0
TABLE
2
LAYER
5
2
100
AcDbSymbolTable
70
2
0
LAYER
5
50
100
AcDbSymbolTableRecord
100
AcDbLayerTableRecord
2
0
70
0
6
CONTINUOUS
0
ENDTAB
0
TABLE
2
STYLE
5
3
100
AcDbSymbolTable
70
1
0
STYLE
5
11
100
AcDbSymbolTableRecord
100
AcDbTextStyleTableRecord
2
STANDARD
70
0
0
ENDTAB
0
TABLE
2
VIEW
5
6
100
AcDbSymbolTable
70
0
0
ENDTAB
0
TABLE
2
UCS
5
7
100
AcDbSymbolTable
70
0
0
ENDTAB
0
TABLE
2
APPID
5
9
100
AcDbSymbolTable
70
2
0
APPID
5
12
100
AcDbSymbolTableRecord
100
AcDbRegAppTableRecord
2
ACAD
70
0
0
ENDTAB
0
TABLE
2
DIMSTYLE
5
A
100
AcDbSymbolTable
70
1
0
ENDTAB
0
TABLE
2
BLOCK_RECORD
5
1
100
AcDbSymbolTable
70
1
0
BLOCK_RECORD
5
1F
100
AcDbSymbolTableRecord
100
AcDbBlockTableRecord
2
*MODEL_SPACE
0
BLOCK_RECORD
5
1B
100
AcDbSymbolTableRecord
100
AcDbBlockTableRecord
2
*PAPER_SPACE
0
ENDTAB
0
ENDSEC
0
SECTION
2
BLOCKS
0
BLOCK
5
20
100
AcDbEntity
100
AcDbBlockBegin
2
*MODEL_SPACE
0
ENDBLK
5
21
100
AcDbEntity
100
AcDbBlockEnd
0
BLOCK
5
1C
100
AcDbEntity
100
AcDbBlockBegin
2
*PAPER_SPACE
0
ENDBLK
5
1D
100
AcDbEntity
100
AcDbBlockEnd
0
ENDSEC
0
SECTION
2
ENTITIES
0
CIRCLE
5
100
100
AcDbEntity
8
0
100
AcDbCircle
10
41.219054193331466
20
44.255145904215979
30
0
40
1.6000000000000003
210
2.4651903288156624e-32
220
0
230
1
0
CIRCLE
5
101
100
AcDbEntity
8
0
100
AcDbCircle
10
11.849508011966076
20
52.124692085581415
30
0
40
1.5999999999999983
210
0
220
0
230
1
0
LWPOLYLINE
5
102
100
AcDbEntity
8
0
100
AcDbPolyline
90
4
70
1
43
0.0
10
-36.599999999999234
20
-19.499999999999993
10
-36.599999999999248
20
5.4999999999999929
42
-0.99999999999999989
10
-33.399999999999245
20
5.4999999999999973
10
-33.399999999999238
20
-19.499999999999993
42
-0.99999999999999989
0
LWPOLYLINE
5
103
100
AcDbEntity
8
0
100
AcDbPolyline
90
4
70
1
43
0.0
10
36.599999999999355
20
5.4999999999999378
10
36.599999999999319
20
-19.50000000000005
42
-0.99999999999999989
10
33.399999999999316
20
-19.500000000000043
10
33.399999999999352
20
5.4999999999999449
42
-0.99999999999999989
0
LWPOLYLINE
5
104
100
AcDbEntity
8
0
100
AcDbPolyline
90
4
70
1
43
0.0
10
-29.049999999999194
20
12.549999999999992
10
-8.9499999999992053
20
12.549999999999992
10
-8.9499999999992053
20
9.449999999999994
10
-29.049999999999194
20
9.4499999999999957
0
LWPOLYLINE
5
105
100
AcDbEntity
8
0
100
AcDbPolyline
90
4
70
1
43
0.0
10
8.9500000000007685
20
12.549999999999992
10
29.050000000000757
20
12.549999999999992
10
29.050000000000757
20
9.449999999999994
10
8.9500000000007685
20
9.4499999999999957
0
CIRCLE
5
106
100
AcDbEntity
8
0
100
AcDbCircle
10
-24.320912487563607
20
19.485431512282286
30
0
40
2.0999999999999992
210
2.4651903288156619e-32
220
-0
230
1
0
CIRCLE
5
107
100
AcDbEntity
8
0
100
AcDbCircle
10
-20.87810353636819
20
47.524860296149626
30
0
40
2.0999999999999988
210
2.4651903288156624e-32
220
-0
230
1
0
CIRCLE
5
108
100
AcDbEntity
8
0
100
AcDbCircle
10
-8.5797936200322376
20
31.783741428618249
30
0
40
2.0999999999999988
210
0
220
-0
230
1
0
CIRCLE
5
109
100
AcDbEntity
8
0
100
AcDbCircle
10
-36.619222403899563
20
35.226550379813659
30
0
40
2.0999999999999988
210
0
220
-0
230
1
0
CIRCLE
5
110
100
AcDbEntity
8
0
100
AcDbCircle
10
5.329070518200752e-14
20
-1.3322676295501878e-14
30
0
40
4.3999999999999968
210
0
220
-0
230
1
0
CIRCLE
5
111
100
AcDbEntity
8
0
100
AcDbCircle
10
-22.599508011965916
20
33.505145904215958
30
0
40
11.200000000000001
210
0
220
-0
230
1
0
CIRCLE
5
112
100
AcDbEntity
8
0
100
AcDbCircle
10
22.599508011966055
20
33.505145904215986
30
0
40
18.199999999999999
210
0
220
-0
230
1
0
LWPOLYLINE
5
113
100
AcDbEntity
8
0
100
AcDbPolyline
90
16
70
1
43
0.0
10
-45.099999999999966
20
-23.399999999999995
10
-36.99999999999995
20
-23.399999999999995
10
-36.99999999999995
20
-26.499999999999989
10
-14.999999999999961
20
-26.499999999999986
10
-14.999999999999957
20
-23.399999999999991
10
15.000000000000028
20
-23.399999999999995
10
15.00000000000002
20
-26.499999999999989
10
37.000000000000021
20
-26.499999999999986
10
37.000000000000014
20
-23.399999999999991
10
45.100000000000016
20
-23.399999999999995
10
45.099999999999994
20
15.642920571486982
42
-0.082170283139673811
10
46.698806278210661
20
25.305849484471572
42
0.84932975087454354
10
2.3825793626270659
20
48.97383798505431
42
-0.49400397694915754
10
-2.3825793626269176
20
48.973837985054303
42
0.84932975087454043
10
-46.698806278210569
20
25.305849484471679
42
-0.082170283139672479
10
-45.099999999999966
20
15.642920571487242
0
ENDSEC
0
SECTION
2
OBJECTS
0
DICTIONARY
5
C
100
AcDbDictionary
3
ACAD_GROUP
350
D
3
ACAD_MLINESTYLE
350
17
0
DICTIONARY
5
D
100
AcDbDictionary
0
DICTIONARY
5
1A
330
C
100
AcDbDictionary
0
DICTIONARY
5
17
100
AcDbDictionary
0
ENDSEC
0
EOF
